<?xml version="1.0" encoding="utf-8"?>
<!-- Generator: Adobe Illustrator 27.0.0, SVG Export Plug-In . SVG Version: 6.00 Build 0)  -->
<svg version="1.1" id="Слой_1" xmlns="http://www.w3.org/2000/svg" xmlns:xlink="http://www.w3.org/1999/xlink" x="0px" y="0px"
	 viewBox="0 0 743.3 404" style="enable-background:new 0 0 743.3 404;" xml:space="preserve">
<style type="text/css">
	.st0{fill:#FF6B6B;}
	.st1{fill:none;stroke:#FF6B6B;stroke-width:0.5;stroke-miterlimit:10;}
	.st2{fill:#F4B4A3;}
	.st3{fill:#EF777C;}
	.st4{fill:#D0575D;}
	.st5{fill:#B84B44;}
</style>
<g id="BACKGROUND">
</g>
<path class="st0" d="M499.2,20.2c35.9-2.8,64.7,1,80.7,6.1c11.4,3.6,22.1,8.6,22.1,8.6s10.3,4.9,20,11.1
	c17.7,11.4,46.7,41.7,60.2,65.2c24,41.9,30.5,117.9-0.5,198.4c0,0,14.2-11,28.9-33.4c8.5-12.9,31.4-49.8,32.5-101.3
	c0.4-18.6,1.7-76-39.7-119.3C662.7,13.1,606.3,11,576.4,10C543.5,8.8,516.6,14.9,499.2,20.2z"/>
<g>
	<path class="st0" d="M743.3,170c-2,25.1-8.8,65.7-34.5,107.1c-9.8,15.8-20.4,28.6-30.3,38.8c4.8-11,9.7-23.8,13.7-38.5
		c4.9-17.6,7.5-33.7,8.9-47.4c6.5-3.8,17-10.9,26.3-23.3C738.2,192.2,741.9,177.8,743.3,170z"/>
	<path class="st0" d="M498.9,20.2c15.2-6.7,59-23.8,114-12.3c47.5,9.9,78.1,35.9,90.5,47.7c-10.2-3.7-23.6-7.6-39.7-9.5
		c-16.5-2-30.8-1.4-41.8-0.1C590.4,25.5,549.4,13.9,498.9,20.2z"/>
</g>
<path class="st0" d="M244.1,20.2C151,8.6,90,58,61.1,111.2c-26.9,49.6-34.6,152.4,0.5,198.4c0,0-56.6-44.2-61.4-134.7
	c-1.5-27.8,8.1-78.9,32-110.1C71,14,157.5-15.5,244.1,20.2z"/>
<g>
	<path class="st0" d="M0.1,174.9c5.7,90.5,61.4,134.7,61.4,134.7c-15.1-19.5-21.6-48.7-23.3-80C22.5,218.7,6.4,197.9,0.1,174.9z"/>
	<path class="st0" d="M244.1,20.2C165-12.4,86,9.3,43.3,52.1C63.7,46.3,92.9,44,121,46C152.6,25.5,193.6,13.9,244.1,20.2z"/>
</g>
<path class="st0" d="M440.5,141.2c-18.7-53.9-114-61.6-139-9.9c0,0,3.8-33,32-60.2c27.4-26.5,68.8-20.4,86.9,8.4
	C420.4,79.6,440.6,105,440.5,141.2z"/>
<path class="st0" d="M440.5,140.4l-0.4-0.3c-5.3-14.2-15.9-25.1-29.1-32.5c3.8-21.4-0.6-37.2-10.1-46.5c7.7,4.3,14.5,10.5,19.4,18.4
	C420.4,79.6,440.3,104.6,440.5,140.4z M339.2,66.3c-2,1.5-3.9,3.1-5.7,4.9c-28.2,27.2-32,60.2-32,60.2c6-12.5,16.2-21.6,28.4-27.3
	C327.5,87.5,331.6,75,339.2,66.3z"/>
<path class="st0" d="M0.1,174.9c6.1,59,68.8,142.7,184.3,155c96.1,10.2,175.6-31.6,214.7-117.5c29.5-64.8,31.9-138.7,0.6-151.7
	c0,0,31.6,9.7,45.2,78.4c6.6,33.2,6.5,77.7-14.5,116.3c-53.1,97.6-153.8,136-243.6,127.2C78.7,372,21.9,306.6,6.7,227.8
	C1.9,203,0.1,174.9,0.1,174.9z"/>
<path class="st0" d="M743.3,170c-3.3,21.3-13,64.9-46.5,107c-29.9,37.6-63.7,55.1-72.1,59.3c-8.9,4.4-93,44.5-171,5.2
	c-12.5-6.3-20.1-12.3-33.6-22.8c-23-17.9-67.1-53.2-89.6-114c-7.5-20.2-19.6-54.5-10.6-96.2c3.5-16.1,9.1-28.7,13.7-37.3
	c-3.6,3.3-8.5,8.1-13.6,14.5c-20.2,25.2-25.6,51.5-28,63.6c-10.6,55,11.7,102.4,20,119.4c3.7,7.6,20.3,40.6,56,72.2
	c17.9,15.9,64.6,57.2,135.8,62.5c105.6,7.9,175.2-70.2,181.2-77.1c0,0,33.7-39.7,50.3-99.9c5.3-19.1,7-37,7-37
	C743.1,181.5,743.3,174.9,743.3,170z"/>
<path class="st0" d="M371,273.2l-9-4.1c-11.7,12.7-22.3,21.9-36.6,30.8c2.7,15.9,11.6,32.2,20.9,45.5c20.7-13,40-29.5,56.7-49.6
	C389.2,289,376.9,281.2,371,273.2z"/>
<path class="st0" d="M333.5,71.2C308,100,292,246.8,453.6,341.5c0,0-24.8,15.2-56.3,6.3c0,0,12.9,22.9,32.7,34.5
	c0,0-79.3-32-122-121.3C277.5,196.6,283.5,116.5,333.5,71.2z"/>
<path class="st0" d="M39.9,55.6c57.6-54.9,173-44.1,222.4,47.3c0,0,5.9-33.4-9.7-55.5c0,0,26.3,0.7,50.1,16.8
	c0,0-18.6-54.6-104.3-63.2C97-9.1,39.9,55.6,39.9,55.6z"/>
<path class="st0" d="M703.4,55.6c-57.6-54.9-173-44.1-222.4,47.3c0,0-5.9-33.4,9.7-55.5c0,0-26.3,0.7-50.1,16.8
	c0,0,18.6-54.6,104.3-63.2C646.3-9.1,703.4,55.6,703.4,55.6z"/>
<path class="st0" d="M39.9,55.6c57.5-55.3,172.7-45.2,222.4,47.3C211.4,11.6,97.7,1.6,39.9,55.6z"/>
<path class="st0" d="M703.4,55.6C645.9,0.3,530.8,10.4,481,102.9C531.9,11.6,645.7,1.6,703.4,55.6z"/>
<path class="st0" d="M252.7,47.5c2.3,0,4.5,0.2,6.7,0.4c2.2,0.3,4.5,0.6,6.7,1c4.4,0.8,8.8,2,13,3.4s8.4,3.1,12.4,5.1
	c1,0.5,2,1,2.9,1.5l2.9,1.7c1,0.5,1.9,1.2,2.8,1.8l2.7,1.9c-3.8-2.2-7.6-4.4-11.6-6.2c-2-1-4-1.8-6.1-2.6c-1-0.4-2.1-0.8-3.1-1.2
	l-1.6-0.6l-1.6-0.5c-2.1-0.7-4.2-1.3-6.4-2l-3.2-0.8c-1.1-0.3-2.2-0.5-3.3-0.8C261.6,48.6,257.2,47.9,252.7,47.5z"/>
<path class="st0" d="M0,171.7c0.9,15.9,5.7,31.5,12.7,46c3.5,7.3,7.5,14.3,12.1,21c4.5,6.7,9.6,13.1,15,19.3
	c21.7,24.5,49.9,44,81.4,56.1c1.9,0.8,3.9,1.5,5.9,2.2c2,0.7,4,1.4,6,2.1l6.1,1.9l3,0.9l3.1,0.8l6.2,1.6c2.1,0.5,4.1,0.9,6.2,1.4
	c4.1,1,8.3,1.6,12.5,2.4c2.1,0.4,4.2,0.6,6.3,0.9l6.3,0.8l6.4,0.6l3.2,0.3l3.2,0.2l6.4,0.4l6.4,0.1c1.1,0,2.1,0.1,3.2,0.1h3.2
	c2.1,0,4.3,0,6.4-0.1c34.1-1.1,68-10,97.2-26.8c-7.2,4.3-14.7,8.2-22.5,11.6c-7.8,3.3-15.8,6.2-24,8.6c-8.2,2.3-16.6,4.1-25,5.5
	c-8.5,1.3-17,2.1-25.6,2.5c-2.1,0.1-4.3,0.1-6.4,0.2l-3.2,0.1c-1.1,0-2.1,0-3.2,0l-6.4-0.1l-6.4-0.3l-3.2-0.2l-3.2-0.3l-6.4-0.6
	l-6.4-0.8c-2.1-0.3-4.3-0.5-6.4-0.9c-4.2-0.7-8.5-1.4-12.6-2.3c-2.1-0.5-4.2-0.9-6.3-1.4l-6.2-1.6l-3.1-0.8l-3.1-0.9l-6.1-1.9
	c-2-0.7-4-1.4-6-2.1s-4-1.4-6-2.2l-5.9-2.4c-2-0.8-3.9-1.7-5.8-2.6c-3.9-1.7-7.6-3.7-11.4-5.6c-1.9-1-3.7-2.1-5.5-3.1l-2.8-1.5
	l-2.7-1.7c-1.8-1.1-3.6-2.2-5.4-3.3l-5.2-3.5c-6.9-4.8-13.5-9.9-19.7-15.5c-6.2-5.5-12.1-11.4-17.4-17.6
	c-5.4-6.2-10.4-12.7-14.9-19.6c-4.5-6.8-8.5-13.9-11.9-21.3C5.1,203.4,0.5,187.7,0,171.7z"/>
<path class="st0" d="M493.6,356.4c0,0,13.3,2.8,32.2,3.5c1.7,0.1,3.2,0.1,3.2,0.1c1.1,0,2.1,0,3.2,0l6.4-0.1l6.4-0.3l3.2-0.2
	l3.2-0.3l6.4-0.6l6.4-0.8c2.1-0.3,4.3-0.5,6.4-0.9c4.2-0.7,8.5-1.4,12.6-2.3c2.1-0.5,4.2-0.9,6.3-1.4l6.2-1.6l3.1-0.8l3.1-0.9
	l6.1-1.9c2-0.7,4-1.4,6-2.1s4-1.4,6-2.2l5.9-2.4c2-0.8,3.9-1.7,5.8-2.6c3.9-1.7,7.6-3.7,11.4-5.6c1.9-1,3.7-2.1,5.5-3.1l2.8-1.5
	l2.7-1.7c-3,1.6-5.9,0.5-6.4-1c-0.5-1.2,0.5-3.2,2.4-4.4c3-1.9,7.4-4.8,12.5-8.7c3-2.3,15.9-12.3,30.2-29.4
	c5.7-6.8,9.6-12.4,12.1-16.1c0,0,8.9-12.8,15.9-26c15.9-29.9,22.6-71,22.4-71c-0.2,0-7.9,41.8-23.3,71.3
	c-7,13.4-15.6,25.6-15.6,25.6c-2.8,4-6.9,9.5-12.2,15.8c-5.7,6.7-15.8,17.8-30.3,29.5c-7,5.7-12.8,9.7-15.7,11.6
	c-3.1,2.1-10,6.7-18.6,11.1c0,0-6.2,3.2-12.6,5.8c-1.2,0.5-2.4,1-2.4,1c-0.4,0.2-1.4,0.6-2.6,1c-1.3,0.5-2.9,1.1-4.8,1.8
	c-1.7,0.6-3.5,1.2-5.2,1.8c-1.1,0.4-2.1,0.7-3.2,1.1c-1.1,0.3-2.2,0.7-3.3,1c-2,0.6-3.9,1.2-5.9,1.7c-2.1,0.6-3.9,1.1-5.3,1.4
	c-0.4,0.1-6,1.5-11.7,2.7c-1.5,0.3-2.9,0.6-3,0.6c-1.4,0.3-2.7,0.5-3.7,0.7c-3.1,0.5-6.2,1-6.2,1c-2.9,0.4-5.2,0.7-5.9,0.8
	c-1.3,0.2-2.5,0.3-3.4,0.4c-1.4,0.1-2.6,0.3-3.4,0.3l-6.4,0.4l-6.4,0.1c-1.1,0-2.1,0.1-3.2,0.1h-3.2c-6.8-0.1-12.6-0.5-16.9-1
	c-16.7-1.8-28.9-5.5-33-6.9c-6.7-2.2-12.1-4.5-14.5-5.5c-2.2-0.9-4.7-2-7.8-3.7c-2.1-1.1-5-2.7-14.4-9.1c-7.4-5-14.6-10.2-14.6-10.2
	c5.5,4.5,10.4,8,14.2,10.7c4.7,3.3,8.7,6.1,14.4,9.2c1.3,0.7,4.5,2.4,9.4,4.5C477.7,353,491.8,356,493.6,356.4z"/>
<path class="st1" d="M371.5,258c10.6-13.4,19.9-28.6,27.6-45.5c29.5-64.8,31.9-138.7,0.6-151.7"/>
<path class="st0" d="M333.5,71.2c-2.2,2.6-3.9,5.6-5.4,8.6s-2.7,6.1-3.7,9.3c-2.1,6.3-3.5,12.9-4.5,19.4c-2,13.1-2.2,26.4-1.1,39.6
	c2.2,26.4,9.6,52.4,21.5,76.5c16.5,33.1,36.1,54.1,47.5,65.9c32.9,33.7,65.9,51.1,65.5,51.7c-0.3,0.4-17.4-10.3-34.9-23.6
	c0,0-17.9-13.8-31.7-27.2c-1.2-1.2-2.5-2.4-3.7-3.7c-1.2-1.2-2.4-2.5-3.6-3.7c-2.3-2.5-4.7-5.1-6.9-7.7c-4.5-5.2-8.8-10.6-12.8-16.1
	s-7.8-11.2-11.4-17c-3.5-5.8-6.8-11.8-9.8-17.8c-6-12.1-10.8-24.8-14.4-37.7s-6-26.1-6.9-39.4c-0.9-13.3-0.5-26.7,1.7-39.8
	c1.1-6.6,2.7-13.1,4.9-19.4C326.2,82.6,329,76.3,333.5,71.2z"/>
<path class="st0" d="M302.4,202.9c12.6,45.7,38.2,88.2,68.1,125.6c-4.9-3.2-57.4-53.3-71.1-124.9c0,0,0,0,0-0.1
	C299,201.7,301.9,201,302.4,202.9z"/>
<path class="st0" d="M429,241.8c3.3-25.1,5.1-33.4,8.4-76.3c0.2-2.2,3.5-2.2,3.6,0l0,0C442.8,203.6,429,241.8,429,241.8z"/>
<path class="st0" d="M61.8,317.8c38.1,29.6,92.3,50.5,156.6,52.1c1.8,0,1.9,2.8,0,2.8c-7,0.2-16.7,0.6-27-0.3
	C117.5,365.8,71.8,328,61.8,317.8z"/>
<path class="st0" d="M666.6,341.4C628.5,371,574.3,392,510,393.5c-1.8,0-1.9,2.8,0,2.8c7,0.2,16.7,0.6,27-0.3
	C610.9,389.4,656.6,351.6,666.6,341.4z"/>
<path class="st0" d="M156.8,4.5c35.5-3,82.1,5.9,104.8,20.9c-0.8,1.1-3.7-1.7-32.1-10.4C183.6,2.8,157,5.9,156.8,4.5z"/>
<path class="st0" d="M584.3,4.5c-35.5-3-82.1,5.9-104.8,20.9c0.8,1.1,3.7-1.7,32.1-10.4C557.5,2.8,584.1,5.9,584.3,4.5z"/>
<rect x="0.1" y="-40.2" class="st2" width="35" height="35"/>
<rect x="35.1" y="-40.2" class="st3" width="35" height="35"/>
<rect x="70.1" y="-40.2" class="st4" width="35" height="35"/>
<rect x="104.6" y="-40.2" class="st5" width="35" height="35"/>
<rect x="139.8" y="-40.2" class="st0" width="35" height="35"/>
</svg>
