<svg width="801" height="801" viewBox="0 0 801 801" fill="none" xmlns="http://www.w3.org/2000/svg">
<path d="M800.342 600.956C800.342 490.499 710.799 400.956 600.342 400.956H400.342V600.956C400.342 711.413 489.885 800.956 600.342 800.956C710.799 800.956 800.342 711.413 800.342 600.956Z" fill="#FFCFCF"/>
<path d="M200.342 0.956299C310.799 0.956299 400.342 90.4994 400.342 200.956V400.956L200.342 400.956C89.8846 400.956 0.341583 311.413 0.341583 200.956C0.341583 90.4994 89.8846 0.956299 200.342 0.956299Z" fill="#FFCFCF"/>
<path d="M550.342 100.956C467.499 100.956 400.342 168.114 400.342 250.956V400.956H550.342C633.184 400.956 700.342 333.799 700.342 250.956C700.342 168.114 633.184 100.956 550.342 100.956Z" fill="#FF6B6B"/>
<path d="M250.342 700.956C333.184 700.956 400.342 633.799 400.342 550.956V400.956H250.342C167.499 400.956 100.342 468.113 100.342 550.956C100.342 633.799 167.499 700.956 250.342 700.956Z" fill="#FF6B6B"/>
<path d="M378.377 382.872C394.472 369.161 399.986 342.883 400.731 331.458L483.813 352.694L309.824 452.914C304.236 435.652 297.604 401.127 315.785 401.127C338.512 401.127 358.258 400.01 378.377 382.872Z" fill="#FF6B6B"/>
<path d="M418.742 420.395C403.359 434.9 399.179 461.424 399.011 472.872L314.963 455.856L483.671 346.982C490.124 363.94 498.49 398.085 480.332 399.003C457.634 400.15 437.969 402.263 418.742 420.395Z" fill="#FF6B6B"/>
</svg>
