<?xml version="1.0" encoding="utf-8"?>
<!-- Generator: Adobe Illustrator 27.2.0, SVG Export Plug-In . SVG Version: 6.00 Build 0)  -->
<svg version="1.1" xmlns="http://www.w3.org/2000/svg" xmlns:xlink="http://www.w3.org/1999/xlink" x="0px" y="0px"
	 viewBox="0 0 735.1 555.7" style="enable-background:new 0 0 735.1 555.7;" xml:space="preserve">
<style type="text/css">
	.st0{fill:#FF6B6B;stroke:#FF6B6B;stroke-width:31;stroke-miterlimit:10;}
	.st1{display:none;}
	.st2{display:inline;}
	.st3{fill:none;stroke:#00FF00;stroke-width:1.3377;stroke-miterlimit:10;}
	.st4{display:inline;fill:none;stroke:#0000FF;stroke-miterlimit:10;}
	.st5{display:inline;fill:none;stroke:#0000FF;stroke-width:1.0375;stroke-miterlimit:10;}
	.st6{display:inline;fill:none;stroke:#0000FF;stroke-width:1.0638;stroke-miterlimit:10;}
	.st7{display:inline;fill:none;stroke:#0000FF;stroke-width:1.0995;stroke-miterlimit:10;}
	.st8{display:inline;fill:none;stroke:#0000FF;stroke-width:0.9871;stroke-miterlimit:10;}
	.st9{display:inline;fill:none;stroke:#0000FF;stroke-width:0.9523;stroke-miterlimit:10;}
	.st10{display:inline;fill:none;stroke:#0000FF;stroke-width:1.1547;stroke-miterlimit:10;}
	.st11{display:inline;fill:none;stroke:#0000FF;stroke-width:0.7857;stroke-miterlimit:10;}
	.st12{display:inline;fill:none;stroke:#0000FF;stroke-width:1.0335;stroke-miterlimit:10;}
	.st13{display:inline;fill:none;stroke:#0000FF;stroke-width:1.1678;stroke-miterlimit:10;}
</style>
<g id="Слой_1">
	<path class="st0" d="M708.5,256.7c-9.6-58.6-34.8-75.7-33.4-133c1.1-46.5,18.8-83.9,32.9-107.5c-11.1-0.2-22.3-0.3-33.4-0.5
		c-14.7,24.2-32.4,61.5-32.9,107.5c-0.6,53.5,23.7,69.8,32.9,134.1c4.4,30.8,11.9,88-17.6,145.2c-7.8,15.1-33.2,62.7-88.8,84.9
		c-4.4,1.7-73.4,28.4-113.2-0.5c-9.5-6.9-27.2-24.1-30.4-27.3c-12.1-11.8-21.5-22.1-27.8-29.3c50.4-92.8,68.7-177,53.2-223.8
		c-4.1-12.3-11.9-35.9-34.7-51.9c-21.1-14.8-43.2-14.9-47.5-14.9c-4.1,0-25.7,0.6-46.4,15.4c-22.7,16.2-30.5,39.7-34.6,51.8
		c-15.4,46.2,2.1,130.2,51.7,223.4c-6.7,7-16.6,17.2-29,29.3c-16.2,15.9-24.3,23.8-29.3,27.8c-30.6,24-84.5,12.9-114.3,0.5
		c-54.2-22.6-78.2-70.1-86.1-85.8c-29.1-57.8-22.3-115.2-18-144.8c9.3-64.5,33.9-80.9,33.7-134.2C95.3,78.1,77,41.4,61.1,16.9
		c-11-0.1-22-0.3-33.1-0.4c15,24.3,32.7,61.2,33.8,106.8c1.4,57.1-23.7,74.5-33.7,133.6C10.3,363.6,70.9,447.1,79.5,459.1
		c13.5,18.8,29.2,40.5,58.3,57.4c60.3,35.1,140.1,28.1,171.5-0.5c21.1-19.2,28.8-28,28.8-28c17.1-19.4,20.8-29.4,29.3-29.3
		c8.7,0.1,11.8,10.5,29,29.7c0,0,8.4,9.5,28.3,26.5c31.1,26.7,112,38.8,174.3,1.6c27.8-16.6,42.4-37.4,56.5-57.4
		C667.9,441.4,725.4,359.3,708.5,256.7z M368.2,147.3 M416.4,339c-12.8,34.3-30.8,61.4-47.7,81.8c-26-30.7-40.3-60.3-48.5-82.2
		c-8.5-22.6-40.7-108.8,0-157.3c3.3-4,21.6-25.8,48.1-25.8c26.5-0.1,44.9,21.6,48.1,25.4C457.2,229.2,424.9,316,416.4,339z"/>
</g>
<g id="Слой_3" class="st1">
	<g class="st2">
		<line class="st3" x1="-7.2" y1="740.6" x2="-7.2" y2="-225.1"/>
		<line class="st3" x1="21.7" y1="740.6" x2="21.7" y2="-225.1"/>
		<line class="st3" x1="50.5" y1="740.6" x2="50.5" y2="-225.1"/>
		<line class="st3" x1="79.3" y1="740.6" x2="79.3" y2="-225.1"/>
		<line class="st3" x1="108.1" y1="740.6" x2="108.1" y2="-225.1"/>
		<line class="st3" x1="136.9" y1="740.6" x2="136.9" y2="-225.1"/>
		<line class="st3" x1="165.8" y1="740.6" x2="165.8" y2="-225.1"/>
		<line class="st3" x1="194.6" y1="740.6" x2="194.6" y2="-225.1"/>
		<line class="st3" x1="223.4" y1="740.6" x2="223.4" y2="-225.1"/>
		<line class="st3" x1="252.2" y1="740.6" x2="252.2" y2="-225.1"/>
		<line class="st3" x1="281.1" y1="740.6" x2="281.1" y2="-225.1"/>
		<line class="st3" x1="309.9" y1="740.6" x2="309.9" y2="-225.1"/>
		<line class="st3" x1="338.7" y1="740.6" x2="338.7" y2="-225.1"/>
		<line class="st3" x1="367.5" y1="740.6" x2="367.5" y2="-225.1"/>
		<line class="st3" x1="396.4" y1="740.6" x2="396.4" y2="-225.1"/>
		<line class="st3" x1="425.2" y1="740.6" x2="425.2" y2="-225.1"/>
		<line class="st3" x1="454" y1="740.6" x2="454" y2="-225.1"/>
		<line class="st3" x1="482.8" y1="740.6" x2="482.8" y2="-225.1"/>
		<line class="st3" x1="511.6" y1="740.6" x2="511.6" y2="-225.1"/>
		<line class="st3" x1="540.5" y1="740.6" x2="540.5" y2="-225.1"/>
		<line class="st3" x1="569.3" y1="740.6" x2="569.3" y2="-225.1"/>
		<line class="st3" x1="598.1" y1="740.6" x2="598.1" y2="-225.1"/>
		<line class="st3" x1="626.9" y1="740.6" x2="626.9" y2="-225.1"/>
		<line class="st3" x1="655.8" y1="740.6" x2="655.8" y2="-225.1"/>
		<line class="st3" x1="684.6" y1="740.6" x2="684.6" y2="-225.1"/>
		<line class="st3" x1="713.4" y1="740.6" x2="713.4" y2="-225.1"/>
		<line class="st3" x1="742.2" y1="740.6" x2="742.2" y2="-225.1"/>
	</g>
	<g class="st2">
		<line class="st3" x1="-115.3" y1="-116.9" x2="850.4" y2="-116.9"/>
		<line class="st3" x1="-115.3" y1="-88.1" x2="850.4" y2="-88.1"/>
		<line class="st3" x1="-115.3" y1="-59.3" x2="850.4" y2="-59.3"/>
		<line class="st3" x1="-115.3" y1="-30.5" x2="850.4" y2="-30.5"/>
		<line class="st3" x1="-115.3" y1="-1.6" x2="850.4" y2="-1.6"/>
		<line class="st3" x1="-115.3" y1="27.2" x2="850.4" y2="27.2"/>
		<line class="st3" x1="-115.3" y1="56" x2="850.4" y2="56"/>
		<line class="st3" x1="-115.3" y1="84.8" x2="850.4" y2="84.8"/>
		<line class="st3" x1="-115.3" y1="113.6" x2="850.4" y2="113.6"/>
		<line class="st3" x1="-115.3" y1="142.5" x2="850.4" y2="142.5"/>
		<line class="st3" x1="-115.3" y1="171.3" x2="850.4" y2="171.3"/>
		<line class="st3" x1="-115.3" y1="200.1" x2="850.4" y2="200.1"/>
		<line class="st3" x1="-115.3" y1="228.9" x2="850.4" y2="228.9"/>
		<line class="st3" x1="-115.3" y1="257.8" x2="850.4" y2="257.8"/>
		<line class="st3" x1="-115.3" y1="286.6" x2="850.4" y2="286.6"/>
		<line class="st3" x1="-115.3" y1="315.4" x2="850.4" y2="315.4"/>
		<line class="st3" x1="-115.3" y1="344.2" x2="850.4" y2="344.2"/>
		<line class="st3" x1="-115.3" y1="373.1" x2="850.4" y2="373.1"/>
		<line class="st3" x1="-115.3" y1="401.9" x2="850.4" y2="401.9"/>
		<line class="st3" x1="-115.3" y1="430.7" x2="850.4" y2="430.7"/>
		<line class="st3" x1="-115.3" y1="459.5" x2="850.4" y2="459.5"/>
		<line class="st3" x1="-115.3" y1="488.3" x2="850.4" y2="488.3"/>
		<line class="st3" x1="-115.3" y1="517.2" x2="850.4" y2="517.2"/>
		<line class="st3" x1="-115.3" y1="546" x2="850.4" y2="546"/>
		<line class="st3" x1="-115.3" y1="574.8" x2="850.4" y2="574.8"/>
		<line class="st3" x1="-115.3" y1="603.6" x2="850.4" y2="603.6"/>
		<line class="st3" x1="-115.3" y1="632.5" x2="850.4" y2="632.5"/>
	</g>
</g>
<g id="Слой_2" class="st1">
	<line class="st4" x1="729.3" y1="-76.2" x2="729.3" y2="537.4"/>
	<line class="st4" x1="7.1" y1="-76.2" x2="7.1" y2="537.4"/>
	<line class="st5" x1="28" y1="-76.2" x2="28" y2="537.4"/>
	<line class="st6" x1="61.7" y1="-76.2" x2="61.7" y2="537.4"/>
	<line class="st7" x1="95.3" y1="-76.2" x2="95.3" y2="537.4"/>
	<line class="st8" x1="236.2" y1="-76.2" x2="236.2" y2="537.4"/>
	<line class="st9" x1="286.3" y1="-76.2" x2="286.3" y2="537.4"/>
	<line class="st5" x1="708.3" y1="-76.2" x2="708.3" y2="537.4"/>
	<line class="st10" x1="127.4" y1="-76.2" x2="127.4" y2="537.4"/>
	<line class="st7" x1="641" y1="-76.2" x2="641" y2="537.4"/>
	<line class="st6" x1="674.6" y1="-76.2" x2="674.6" y2="537.4"/>
	<line class="st10" x1="608.9" y1="-76.2" x2="608.9" y2="537.4"/>
	<line class="st8" x1="500.1" y1="-76.2" x2="500.1" y2="537.4"/>
	<line class="st9" x1="450" y1="-76.2" x2="450" y2="537.4"/>
	<line class="st11" x1="396" y1="-76.2" x2="396" y2="537.4"/>
	<line class="st11" x1="340.3" y1="-76.2" x2="340.3" y2="537.4"/>
	<line class="st12" x1="416.4" y1="-76.2" x2="416.4" y2="537.4"/>
	<line class="st12" x1="320" y1="-76.2" x2="320" y2="537.4"/>
	<line class="st4" x1="368.2" y1="-76.2" x2="368.2" y2="537.4"/>
	<line class="st13" x1="776.1" y1="16.5" x2="-60.7" y2="16.5"/>
	<line class="st13" x1="776.1" y1="32.1" x2="-60.7" y2="32.1"/>
	<line class="st13" x1="776.1" y1="123.7" x2="-60.7" y2="123.7"/>
	<line class="st13" x1="776.1" y1="139.7" x2="-60.7" y2="139.7"/>
	<line class="st13" x1="776.1" y1="155.8" x2="-60.7" y2="155.8"/>
	<line class="st13" x1="776.1" y1="181.1" x2="-60.7" y2="181.1"/>
	<line class="st13" x1="776.1" y1="206.4" x2="-60.7" y2="206.4"/>
	<line class="st13" x1="776.1" y1="257" x2="-60.7" y2="257"/>
	<line class="st13" x1="776.1" y1="297.8" x2="-60.7" y2="297.8"/>
	<line class="st13" x1="776.1" y1="338.6" x2="-60.7" y2="338.6"/>
	<line class="st13" x1="776.1" y1="379.5" x2="-60.7" y2="379.5"/>
	<line class="st13" x1="776.1" y1="420.3" x2="-60.7" y2="420.3"/>
	<line class="st13" x1="776.1" y1="439.5" x2="-60.7" y2="439.5"/>
	<line class="st13" x1="776.1" y1="458.6" x2="-60.7" y2="458.6"/>
	<line class="st13" x1="776.1" y1="477.8" x2="-60.7" y2="477.8"/>
	<line class="st13" x1="776.1" y1="497" x2="-60.7" y2="497"/>
</g>
</svg>
